<svg id="Layer_1" data-name="Layer 1" xmlns="http://www.w3.org/2000/svg" viewBox="0 0 800 800"><title>working logo</title><path d="M219.83,524.39h12.65v-88H220.05L206.22,485a34.19,34.19,0,0,0-.34,4,23.94,23.94,0,0,0-.33-4l-13.84-48.64H179.29v88h12.65V481a83.77,83.77,0,0,0-.79-9.56l11.41,44.93h6.7l11.35-44.93a80.83,80.83,0,0,0-.78,9.56Z"/><path d="M279.38,436.39H250.81q-7.81,0-7.82,8.1v71.86q0,8,7.82,8h28.57q8,0,8-8V444.49Q287.36,436.39,279.38,436.39Zm-5.18,76.7H256.15v-65.4H274.2Z"/><path d="M334.31,524.39q8,0,8-8V444.49q0-8.1-8-8.1H305.75q-7.81,0-7.82,8.1v71.86q0,8,7.82,8Zm-23.22-76.7h18.05v65.4H311.09Z"/><path d="M352.87,436.39v88h12.82v-49a33.4,33.4,0,0,0-.84-6.36l21.08,55.39h11.53v-88H384.64V484.3a33.41,33.41,0,0,0,.84,6.35L364.4,436.39Z"/><polygon points="408.03 436.39 408.03 524.39 442.61 524.39 442.61 512.64 421.19 512.64 421.19 436.39 408.03 436.39"/><rect x="450.65" y="436.39" width="13.16" height="88"/><path d="M510.09,436.39h-27.5q-8,0-8,8.1v71.86q0,8,7.81,8h27.67q8,0,8-8V477.27h-23v11.19h9.79v24.63H487.76v-65.4h17.16v15.58h13.21V444.49Q518.13,436.39,510.09,436.39Z"/><polygon points="528.65 436.39 528.65 524.39 541.8 524.39 541.8 484.92 559.63 484.92 559.63 524.39 572.9 524.39 572.9 436.39 559.63 436.39 559.63 472.66 541.8 472.66 541.8 436.39 528.65 436.39"/><polygon points="607.09 524.39 607.09 448.03 621.59 448.03 621.59 436.39 579.48 436.39 579.48 448.03 593.98 448.03 593.98 524.39 607.09 524.39"/><path d="M177.89,666.13h18.9V601.3A122.22,122.22,0,0,0,195.61,587l17,67.1h10l17-67.1a120.27,120.27,0,0,0-1.17,14.28v64.83h18.89V534.71H238.77l-20.65,72.63a49.12,49.12,0,0,0-.51,6,35.24,35.24,0,0,0-.5-6l-20.66-72.63H177.89Z"/><path d="M268.25,665.79v.34h19.4l3.94-24.94H316.2l3.94,24.94h19.48L314.35,534.54H293.69ZM303.85,565l9.57,59.29H294.19Z"/><path d="M350.62,666.13h19.65V618.51H402.1q12,0,12-12.26V546.8q0-12.09-12-12.09H350.62Zm19.65-114.54h24v50h-24Z"/><polygon points="428.05 534.71 428.05 666.13 479.69 666.13 479.69 648.58 447.7 648.58 447.7 534.71 428.05 534.71"/><polygon points="491.36 666.13 545.86 666.13 545.86 648.74 511.01 648.74 511.01 607.51 540.57 607.51 540.57 590.47 511.01 590.47 511.01 552.09 545.36 552.09 545.36 534.71 491.36 534.71 491.36 666.13"/><path d="M610.35,534.71H570.8Q559,534.71,559,546.8V576a13.94,13.94,0,0,0,4.28,10.5l39.39,37.28v25.78h-24V622.79H559v31.33q0,12,11.84,12h39.55q11.92,0,11.93-12V622.79A13.94,13.94,0,0,0,618,612.13L578.61,575V551.25h24V576h19.65V546.63Q622.28,534.7,610.35,534.71Z"/><polygon points="179 685 179 691.5 622 691.5 622 685 622 678.5 179 678.5 179 685"/><path d="M660.92,408.25c-5.73,0-23.76,3.28-45.06-3.28S581.45,393.5,579,392.68s-9-2.45-13.11.82a13.16,13.16,0,0,1-9,3.28c-1.64,0,16.39-22.94,17.21-25.4s6.55-9.83,11.47-15.56,18.84-18,20.48-21.31,6.55-8.19,12.29-10.65,18.84-8.19,24.58-9,1.64-1.64-1.64-1.64-27.86.82-36.87-4.92-5.74-13.92-5.74-13.92l-8.19-3.28s-1.64-2.46,3.28-4.1l4.91-1.64s4.1-34.41,7.38-46.7,7.37-25.4,8.19-27,9-16.38,9.83-17.2,4.1-4.92,4.1-4.92.82-3.27-4.1,1.64-27.85,23.76-33.59,27-9,4.1-10.65,4.92-4.1,3.27-6.55,4.09-13.11,4.92-16.39,1.64-4.1-4.1-4.92-2.46S538.84,240.29,535.57,246s-38.51,31.13-41,34.41-4.1,5.73-4.1,2.46-4.91-9-1.63-21.31,4.91-30.31,10.65-41S497.88,210,504.43,187s9.83-33.59,9.83-33.59.82-4.91-2.45.82-19.67,27-35.23,26.22-19.67-15.57-20.49-18a21.83,21.83,0,0,0-8.19-9.84c-4.1-2.45-17.21-20.48-18.85-22.12S411.85,110,408.57,91.17c-3.51-1.4-6.42-11.24-7.18-14a1,1,0,0,0-1-.72,1,1,0,0,0-.95.72c-.76,2.78-3.67,12.62-7.19,14C389,110,373.45,128.86,371.81,130.5S357.06,150.17,353,152.62a21.86,21.86,0,0,0-8.2,9.84c-.82,2.45-4.91,17.2-20.48,18s-32-20.48-35.23-26.22-2.46-.82-2.46-.82,3.28,10.65,9.83,33.59-.82,22.95,4.92,33.6,7.37,28.67,10.65,41-1.64,18-1.64,21.31-1.64.81-4.09-2.46-37.69-28.68-41-34.41-15.57-18-16.39-19.67-1.64-.82-4.91,2.46-13.93-.82-16.39-1.64-4.92-3.28-6.55-4.09-4.92-1.64-10.66-4.92-28.67-22.12-33.59-27-4.09-1.64-4.09-1.64,3.27,4.1,4.09,4.92,9,15.57,9.83,17.2,4.92,14.75,8.2,27,7.37,46.7,7.37,46.7l4.92,1.64c4.91,1.64,3.27,4.1,3.27,4.1l-8.19,3.28s3.28,8.19-5.73,13.92-33.6,4.92-36.87,4.92-7.38.82-1.64,1.64,18.84,6.55,24.58,9,10.65,7.38,12.29,10.65,15.56,15.57,20.48,21.31,10.65,13.1,11.47,15.56,18.85,25.4,17.21,25.4a13.19,13.19,0,0,1-9-3.28c-4.09-3.27-10.65-1.63-13.1-.82S206.31,398.42,185,405s-39.33,3.28-45.07,3.28-4.91,3.28-1.64,2.46,9,2.46,13.11,3.28,3.28,5.73,12.29,5.73c3.65,0,9.18,1.08,15.23,3.28h443c6-2.2,11.57-3.28,15.22-3.28,9,0,8.2-4.91,12.29-5.73s9.83-4.1,13.11-3.28S666.66,408.25,660.92,408.25ZM482.53,183.65a1.41,1.41,0,1,1-1.4,1.41A1.41,1.41,0,0,1,482.53,183.65Zm-6.62,25.62a1.41,1.41,0,1,1-1.41,1.41A1.41,1.41,0,0,1,475.91,209.27Zm-6.37-22.34a5.27,5.27,0,1,1-5.27,5.27A5.27,5.27,0,0,1,469.54,186.93Zm-12,8.72a1.41,1.41,0,1,1-1.4,1.41A1.41,1.41,0,0,1,457.53,195.65Zm-4.62,30.62a1.41,1.41,0,1,1-1.41,1.41A1.41,1.41,0,0,1,452.91,226.27Zm-4.24-67.82a3.14,3.14,0,1,1-3.14,3.13A3.13,3.13,0,0,1,448.67,158.45Zm-4.76,19.82a1.41,1.41,0,1,1-1.41,1.41A1.41,1.41,0,0,1,443.91,178.27Zm-9.11,56.31a3.14,3.14,0,1,1-3.13-3.13A3.14,3.14,0,0,1,434.8,234.58Zm.11,16.69a1.41,1.41,0,1,1-1.41,1.41A1.41,1.41,0,0,1,434.91,251.27ZM425.12,142a4.22,4.22,0,1,1-4.21,4.22A4.22,4.22,0,0,1,425.12,142Zm-10.75-15.73a1.41,1.41,0,1,1-1.4,1.41A1.41,1.41,0,0,1,414.37,126.27Zm-10.7-21.82a3.14,3.14,0,1,1-3.14,3.13A3.13,3.13,0,0,1,403.67,104.45Zm.14,31.23a1.41,1.41,0,1,1-1.4-1.41A1.41,1.41,0,0,1,403.81,135.68Zm-7.12-41.09a1.41,1.41,0,1,1-1.41,1.4A1.4,1.4,0,0,1,396.69,94.59ZM390.74,116a5.63,5.63,0,1,1-5.63,5.62A5.62,5.62,0,0,1,390.74,116ZM375,144.17a3.14,3.14,0,1,1-3.13,3.13A3.14,3.14,0,0,1,375,144.17ZM398,152a35,35,0,0,1,32.3,21.5,5.16,5.16,0,0,0,1.05,2.86A35,35,0,0,1,418,215.74a7,7,0,1,0-12.22,5.39A35,35,0,1,1,398,152Zm3,157h5v6l-5,4Zm0-13.94a1.41,1.41,0,1,1,1.4,1.4A1.41,1.41,0,0,1,401,295.06Zm1.15-46.62a4.22,4.22,0,1,1,4.22-4.22A4.21,4.21,0,0,1,402.12,248.44ZM401,227.68a1.41,1.41,0,1,1,1.4,1.41A1.41,1.41,0,0,1,401,227.68Zm11.57,38.25a5.27,5.27,0,1,1-5.27,5.27A5.27,5.27,0,0,1,412.54,265.93ZM388.86,279a3.14,3.14,0,1,1-3.13-3.13A3.14,3.14,0,0,1,388.86,279Zm-8.05-51.31a1.41,1.41,0,1,1-1.4-1.41A1.41,1.41,0,0,1,380.81,227.68Zm-14.72,31.69a1.41,1.41,0,1,1-1.4-1.41A1.4,1.4,0,0,1,366.09,259.37Zm-3.91-23.07a3.14,3.14,0,1,1-3.14-3.13A3.15,3.15,0,0,1,362.18,236.3Zm-3.27-70a1.41,1.41,0,1,1-1.41,1.41A1.41,1.41,0,0,1,358.91,166.27Zm-1.55,40.31a5.63,5.63,0,1,1-5.62-5.62A5.63,5.63,0,0,1,357.36,206.58Zm-9.69-36.13a3.14,3.14,0,1,1-3.14,3.13A3.13,3.13,0,0,1,347.67,170.45Zm-2.26,172.71,44.73-10.1,28.66-23.74a1.38,1.38,0,0,1,1.77,0l29.17,24.4,4.78,3.06a1.39,1.39,0,1,1-1.5,2.34L448.17,336l-.15-.1-28.34-23.72-28,23.22a1.21,1.21,0,0,1-.58.28l-45,10.17a1.15,1.15,0,0,1-.31,0,1.39,1.39,0,0,1-.31-2.74ZM356,351v24.78h-4.22V348L393,338.72l.49-.41,26-21.51,26,21.51,1.41,1.18v36.29H394V343ZM336.53,231.65a1.41,1.41,0,1,1-1.4,1.41A1.41,1.41,0,0,1,336.53,231.65Zm-4.8-40.79a3.14,3.14,0,1,1-3.14,3.13A3.13,3.13,0,0,1,331.73,190.86Zm-13.19,13.07a5.27,5.27,0,1,1-5.27,5.27A5.27,5.27,0,0,1,318.54,203.93Zm-10.42-15.49a4.22,4.22,0,1,1,4.22-4.22A4.21,4.21,0,0,1,308.12,188.44ZM312,229.06a1.41,1.41,0,1,1,1.4,1.4A1.41,1.41,0,0,1,312,229.06ZM264,409l86.42-25h99.22L536,409Z"/><rect x="406" y="343" width="27" height="27"/><circle cx="374.97" cy="172.44" r="7.03"/><circle cx="391.69" cy="163.37" r="1.41"/><circle cx="408.73" cy="180.99" r="3.14"/><circle cx="420.22" cy="198.99" r="1.41"/><circle cx="368.69" cy="193.99" r="1.41"/><circle cx="394.92" cy="188.64" r="3.14"/><circle cx="430.22" cy="184.99" r="1.41"/></svg>