<?xml version="1.0" encoding="utf-8"?>
<!-- Generator: Adobe Illustrator 22.1.0, SVG Export Plug-In . SVG Version: 6.00 Build 0)  -->
<svg version="1.1" id="Layer_1" xmlns="http://www.w3.org/2000/svg" xmlns:xlink="http://www.w3.org/1999/xlink" x="0px" y="0px"
	 viewBox="0 0 688 800" style="enable-background:new 0 0 688 800;" xml:space="preserve">
<g>
	<path d="M126.8,583.5h-16.4v-56.2c0-3,0.3-7.1,1-12.4L96.7,573H88l-14.8-58.2c0.7,5.4,1,9.5,1,12.4v56.2H57.9v-114H74l17.9,63
		c0.2,0.7,0.3,2.4,0.4,5.2c0-1.2,0.1-2.9,0.4-5.2l17.9-63h16.1V583.5z"/>
	<path d="M197.9,573c0,6.9-3.4,10.4-10.3,10.4h-37c-6.8,0-10.1-3.5-10.1-10.4v-93.1c0-7,3.4-10.5,10.1-10.5h37
		c6.9,0,10.3,3.5,10.3,10.5V573z M180.9,568.8v-84.7h-23.4v84.7H180.9z"/>
	<path d="M269.1,573c0,6.9-3.4,10.4-10.3,10.4h-37c-6.8,0-10.1-3.5-10.1-10.4v-93.1c0-7,3.4-10.5,10.1-10.5h37
		c6.9,0,10.3,3.5,10.3,10.5V573z M252.1,568.8v-84.7h-23.4v84.7H252.1z"/>
	<path d="M340.6,583.5h-14.9l-27.3-71.8c0.7,3.5,1.1,6.2,1.1,8.2v63.5h-16.6v-114h14.9l27.3,70.3c-0.7-3.5-1.1-6.2-1.1-8.2v-62.1
		h16.6V583.5z"/>
	<path d="M399.1,583.5h-44.8v-114h17v98.8h27.8V583.5z"/>
	<path d="M426.6,583.5h-17.1v-114h17.1V583.5z"/>
	<path d="M496.9,573c0,6.9-3.5,10.4-10.4,10.4h-35.8c-6.8,0-10.1-3.5-10.1-10.4v-93.1c0-7,3.4-10.5,10.3-10.5h35.6
		c6.9,0,10.4,3.5,10.4,10.5v24.3h-17.1v-20.2h-22.2v84.7h22.2v-31.9h-12.7v-14.5h29.8V573z"/>
	<path d="M567.9,583.5h-17.2v-51.1h-23.1v51.1h-17v-114h17v47h23.1v-47h17.2V583.5z"/>
	<path d="M631,484.5h-18.8v98.9h-17v-98.9h-18.8v-15.1H631V484.5z"/>
</g>
<g>
	<g>
		<path d="M159,767.1h-24.5v-84c0-4.4,0.5-10.6,1.5-18.5l-22,86.9h-12.9L79,664.6c1,8.1,1.5,14.2,1.5,18.5v84H56.1V596.8h24
			l26.8,94.1c0.3,1,0.5,3.6,0.7,7.7c0-1.8,0.2-4.4,0.7-7.7l26.8-94.1h24V767.1z"/>
		<path d="M265.6,767.1h-25.2l-5.1-32.3h-31.9l-5.1,32.3h-25.1v-0.4l33-170.1h26.8L265.6,767.1z M231.7,712.9l-12.4-76.8l-12.5,76.8
			H231.7z"/>
		<path d="M362.2,689.5c0,10.6-5.2,15.9-15.6,15.9h-41.2v61.7h-25.5V596.8h66.7c10.4,0,15.6,5.2,15.6,15.7V689.5z M336.5,683.6
			v-64.9h-31.1v64.9H336.5z"/>
		<path d="M447.1,767.1h-66.9V596.8h25.5v147.5h41.5V767.1z"/>
		<path d="M532.9,767.1h-70.6V596.8h70v22.5h-44.5v49.7H526v22.1h-38.3v53.4h45.2V767.1z"/>
		<path d="M631.9,751.6c0,10.4-5.2,15.6-15.5,15.6h-51.2c-10.2,0-15.3-5.2-15.3-15.6V711h25.5v34.7h31.1v-33.4l-51-48.3
			c-3.7-3.6-5.5-8.1-5.5-13.6v-37.9c0-10.4,5.1-15.7,15.3-15.7h51.2c10.3,0,15.5,5.2,15.5,15.5v38.1h-25.5v-32.1h-31.1v30.8l51,48.1
			c3.7,3.5,5.6,8.1,5.6,13.8V751.6z"/>
	</g>
</g>
<rect x="57.5" y="783.2" width="574" height="16.8"/>
<g>
	<polygon points="336.1,390.9 336.1,348.4 286.9,358.8 286.9,390.9 333.5,390.9 	"/>
	<rect x="351.6" y="348.4" width="35" height="35"/>
	<circle cx="311.4" cy="127.4" r="9.1"/>
	<path d="M383.1,128.8c0.1,1.4,0.6,2.7,1.4,3.7C384.1,131.2,383.6,130,383.1,128.8z"/>
	<circle cx="333.1" cy="115.7" r="1.8"/>
	<circle cx="391" cy="159.3" r="1.8"/>
	<circle cx="355.2" cy="138.5" r="4.1"/>
	<path d="M358.1,193.5c5,0,9.1-4.1,9.1-9.1c0-0.3,0-0.6,0-0.9c-4.7,3.3-10.1,5.7-15.8,7C353,192.4,355.4,193.5,358.1,193.5z"/>
	<circle cx="370.1" cy="161.8" r="1.8"/>
	<circle cx="303.3" cy="155.3" r="1.8"/>
	<circle cx="337.3" cy="148.4" r="4.1"/>
	<circle cx="383" cy="143.7" r="1.8"/>
	<g>
		<path d="M358.1,175.3c-5,0-9.1,4.1-9.1,9.1c0,2.3,0.9,4.5,2.3,6.1c5.8-1.3,11.1-3.7,15.8-7C366.7,178.9,362.8,175.3,358.1,175.3z"
			/>
		<path d="M682,433c-7.4,0-30.8,4.2-58.4-4.2c-27.6-8.5-44.6-14.9-47.8-15.9s-11.7-3.2-17,1.1c-5.3,4.2-9.6,4.2-11.7,4.2
			c-2.1,0,21.2-29.7,22.3-32.9s8.5-12.7,14.9-20.2c6.4-7.4,24.4-23.4,26.5-27.6c2.1-4.2,8.5-10.6,15.9-13.8
			c7.4-3.2,24.4-10.6,31.8-11.7c7.4-1.1,2.1-2.1-2.1-2.1c-4.2,0-36.1,1.1-47.8-6.4c-11.7-7.4-7.4-18-7.4-18l-10.6-4.2
			c0,0-2.1-3.2,4.2-5.3c6.4-2.1,6.4-2.1,6.4-2.1s5.3-44.6,9.6-60.5c4.2-15.9,9.6-32.9,10.6-35c1.1-2.1,11.7-21.2,12.7-22.3
			c1.1-1.1,5.3-6.4,5.3-6.4s1.1-4.2-5.3,2.1c-6.4,6.4-36.1,30.8-43.5,35c-7.4,4.2-11.7,5.3-13.8,6.4c-2.1,1.1-5.3,4.2-8.5,5.3
			c-3.2,1.1-17,6.4-21.2,2.1s-5.3-5.3-6.4-3.2c-1.1,2.1-17,18-21.2,25.5c-4.2,7.4-49.9,40.3-53.1,44.6c-3.2,4.2-5.3,7.4-5.3,3.2
			s-6.4-11.7-2.1-27.6c4.2-15.9,6.4-39.3,13.8-53.1c7.4-13.8-2.1-13.8,6.4-43.5c8.5-29.7,12.7-43.5,12.7-43.5s1.1-6.4-3.2,1.1
			c-4.2,7.4-25.5,35-45.7,34c-20.2-1.1-25.5-20.2-26.5-23.4c-1.1-3.2-5.3-9.6-10.6-12.7c-5.3-3.2-22.3-26.5-24.4-28.7
			c-2.1-2.1-22.3-26.5-26.5-51c-4.6-1.8-8.3-14.6-9.3-18.2C345.5,3.4,345,3,344.4,3c-0.6,0-1.1,0.4-1.2,0.9
			c-1,3.6-4.8,16.3-9.3,18.2c-4.2,24.4-24.4,48.8-26.5,51c-2.1,2.1-19.1,25.5-24.4,28.7c-5.3,3.2-9.6,9.6-10.6,12.7
			c-1.1,3.2-6.4,22.3-26.5,23.4c-20.2,1.1-41.4-26.5-45.7-34c-4.2-7.4-3.2-1.1-3.2-1.1s4.2,13.8,12.7,43.5
			c8.5,29.7-1.1,29.7,6.4,43.5c7.4,13.8,9.6,37.2,13.8,53.1c4.2,15.9-2.1,23.4-2.1,27.6s-2.1,1.1-5.3-3.2
			c-3.2-4.2-48.8-37.2-53.1-44.6c-4.2-7.4-20.2-23.4-21.2-25.5c-1.1-2.1-2.1-1.1-6.4,3.2s-18-1.1-21.2-2.1c-3.2-1.1-6.4-4.2-8.5-5.3
			c-2.1-1.1-6.4-2.1-13.8-6.4c-7.4-4.2-37.2-28.7-43.5-35c-6.4-6.4-5.3-2.1-5.3-2.1s4.2,5.3,5.3,6.4c1.1,1.1,11.7,20.2,12.7,22.3
			c1.1,2.1,6.4,19.1,10.6,35c4.2,15.9,9.6,60.5,9.6,60.5s0,0,6.4,2.1c6.4,2.1,4.2,5.3,4.2,5.3l-10.6,4.2c0,0,4.2,10.6-7.4,18
			c-11.7,7.4-43.5,6.4-47.8,6.4c-4.2,0-9.6,1.1-2.1,2.1c7.4,1.1,24.4,8.5,31.8,11.7c7.4,3.2,13.8,9.6,15.9,13.8
			c2.1,4.2,20.2,20.2,26.5,27.6c6.4,7.4,13.8,17,14.9,20.2s24.4,32.9,22.3,32.9c-2.1,0-6.4,0-11.7-4.2c-5.3-4.2-13.8-2.1-17-1.1
			s-20.2,7.4-47.8,15.9c-27.6,8.5-51,4.2-58.4,4.2c-7.4,0-6.4,4.2-2.1,3.2c4.2-1.1,11.7,3.2,17,4.2c5.3,1.1,4.2,7.4,15.9,7.4
			c4.7,0,11.9,1.4,19.7,4.2h574c7.8-2.9,15-4.2,19.7-4.2c11.7,0,10.6-6.4,15.9-7.4c5.3-1.1,12.7-5.3,17-4.2
			C688.3,437.2,689.4,433,682,433z M450.8,141.9c1,0,1.8,0.8,1.8,1.8s-0.8,1.8-1.8,1.8s-1.8-0.8-1.8-1.8S449.8,141.9,450.8,141.9z
			 M442.2,175.1c1,0,1.8,0.8,1.8,1.8s-0.8,1.8-1.8,1.8s-1.8-0.8-1.8-1.8S441.2,175.1,442.2,175.1z M434,146.2c3.8,0,6.8,3.1,6.8,6.8
			s-3.1,6.8-6.8,6.8c-3.8,0-6.8-3.1-6.8-6.8S430.2,146.2,434,146.2z M418.4,157.5c1,0,1.8,0.8,1.8,1.8c0,1-0.8,1.8-1.8,1.8
			s-1.8-0.8-1.8-1.8C416.6,158.3,417.4,157.5,418.4,157.5z M412.4,197.2c1,0,1.8,0.8,1.8,1.8s-0.8,1.8-1.8,1.8s-1.8-0.8-1.8-1.8
			S411.4,197.2,412.4,197.2z M406.9,109.3c2.2,0,4.1,1.8,4.1,4.1c0,2.2-1.8,4.1-4.1,4.1c-2.2,0-4.1-1.8-4.1-4.1
			C402.9,111.1,404.7,109.3,406.9,109.3z M400.8,135c1,0,1.8,0.8,1.8,1.8c0,1-0.8,1.8-1.8,1.8s-1.8-0.8-1.8-1.8
			C398.9,135.8,399.8,135,400.8,135z M392.3,175.3c3,0,5.5,2.4,5.5,5.5c0,3-2.4,5.5-5.5,5.5s-5.5-2.4-5.5-5.5
			C386.8,177.7,389.2,175.3,392.3,175.3z M389.1,229.6c1,0,1.8,0.8,1.8,1.8s-0.8,1.8-1.8,1.8s-1.8-0.8-1.8-1.8
			S388.1,229.6,389.1,229.6z M384.9,212c-2.2,0-4.1-1.8-4.1-4.1s1.8-4.1,4.1-4.1s4.1,1.8,4.1,4.1S387.1,212,384.9,212z M376.4,88
			c3,0,5.5,2.4,5.5,5.5c0,3-2.4,5.5-5.5,5.5c-3,0-5.5-2.4-5.5-5.5C371,90.4,373.4,88,376.4,88z M362.5,67.6c1,0,1.8,0.8,1.8,1.8
			s-0.8,1.8-1.8,1.8c-1,0-1.8-0.8-1.8-1.8S361.5,67.6,362.5,67.6z M348.6,39.3c2.2,0,4.1,1.8,4.1,4.1c0,2.2-1.8,4.1-4.1,4.1
			c-2.2,0-4.1-1.8-4.1-4.1C344.6,41.1,346.4,39.3,348.6,39.3z M348.8,79.8c0,1-0.8,1.8-1.8,1.8s-1.8-0.8-1.8-1.8S346,78,347,78
			S348.8,78.8,348.8,79.8z M339.6,26.5c1,0,1.8,0.8,1.8,1.8s-0.8,1.8-1.8,1.8s-1.8-0.8-1.8-1.8S338.6,26.5,339.6,26.5z M331.9,54.2
			c4,0,7.3,3.3,7.3,7.3c0,4-3.3,7.3-7.3,7.3c-4,0-7.3-3.3-7.3-7.3C324.6,57.5,327.8,54.2,331.9,54.2z M311.5,90.8
			c2.2,0,4.1,1.8,4.1,4.1s-1.8,4.1-4.1,4.1s-4.1-1.8-4.1-4.1S309.3,90.8,311.5,90.8z M341.3,100.9c18.8,0,35,11.5,41.9,27.9
			c0.5,1.2,1,2.4,1.4,3.7c1.4,4.3,2.1,9,2.1,13.8c0,15.4-7.7,29-19.5,37.2c0,0.3,0,0.6,0,0.9c0,5-4.1,9.1-9.1,9.1
			c-2.7,0-5.1-1.2-6.8-3c-3.2,0.7-6.6,1.1-10,1.1c-25,0-45.4-20.3-45.4-45.4S316.2,100.9,341.3,100.9z M367,255.4
			c0,3.8-3.1,6.8-6.8,6.8c-3.8,0-6.8-3.1-6.8-6.8s3.1-6.8,6.8-6.8C363.9,248.5,367,251.6,367,255.4z M345.2,304.4h6.5v7.8l-6.5,5.2
			V304.4z M345.1,286.3c0-1,0.8-1.8,1.8-1.8s1.8,0.8,1.8,1.8s-0.8,1.8-1.8,1.8S345.1,287.3,345.1,286.3z M346.6,225.9
			c-3,0-5.5-2.4-5.5-5.5c0-3,2.4-5.5,5.5-5.5c3,0,5.5,2.4,5.5,5.5C352.1,223.4,349.6,225.9,346.6,225.9z M345.1,199
			c0-1,0.8-1.8,1.8-1.8s1.8,0.8,1.8,1.8s-0.8,1.8-1.8,1.8S345.1,200,345.1,199z M329.4,265.5c0,2.2-1.8,4.1-4.1,4.1
			s-4.1-1.8-4.1-4.1c0-2.2,1.8-4.1,4.1-4.1S329.4,263.2,329.4,265.5z M319,199c0,1-0.8,1.8-1.8,1.8s-1.8-0.8-1.8-1.8
			s0.8-1.8,1.8-1.8S319,198,319,199z M299.9,240.1c0,1-0.8,1.8-1.8,1.8c-1,0-1.8-0.8-1.8-1.8s0.8-1.8,1.8-1.8
			C299.1,238.2,299.9,239,299.9,240.1z M294.9,210.2c0,2.2-1.8,4.1-4.1,4.1c-2.2,0-4.1-1.8-4.1-4.1c0-2.2,1.8-4.1,4.1-4.1
			C293,206.1,294.9,207.9,294.9,210.2z M290.6,119.4c1,0,1.8,0.8,1.8,1.8s-0.8,1.8-1.8,1.8s-1.8-0.8-1.8-1.8
			S289.6,119.4,290.6,119.4z M288.6,171.7c0,4-3.3,7.3-7.3,7.3c-4,0-7.3-3.3-7.3-7.3c0-4,3.3-7.3,7.3-7.3
			C285.4,164.4,288.6,167.6,288.6,171.7z M276.1,124.8c2.2,0,4.1,1.8,4.1,4.1s-1.8,4.1-4.1,4.1s-4.1-1.8-4.1-4.1
			S273.8,124.8,276.1,124.8z M273.1,348.6l58-13.1l37.1-30.8c0.7-0.6,1.6-0.6,2.3,0l37.8,31.6l6.2,4c0.8,0.5,1.1,1.6,0.5,2.5
			c-0.5,0.8-1.6,1.1-2.5,0.5l-6.3-4c-0.1,0-0.1-0.1-0.2-0.1l-36.7-30.7l-36.3,30.1c-0.2,0.2-0.5,0.3-0.8,0.4l-58.4,13.2
			c-0.1,0-0.3,0-0.4,0c-0.8,0-1.6-0.6-1.8-1.4C271.6,349.8,272.2,348.8,273.1,348.6z M404.6,343.9v3v44.1h-67.4h-1h-2.6h-46.7h-5.5
			v-36l53.4-12.1l0.6-0.5l33.6-27.9l33.6,27.9L404.6,343.9z M261.6,204.1c1,0,1.8,0.8,1.8,1.8s-0.8,1.8-1.8,1.8s-1.8-0.8-1.8-1.8
			S260.6,204.1,261.6,204.1z M255.4,151.3c2.2,0,4.1,1.8,4.1,4.1s-1.8,4.1-4.1,4.1c-2.2,0-4.1-1.8-4.1-4.1S253.2,151.3,255.4,151.3z
			 M238.3,168.2c3.8,0,6.8,3.1,6.8,6.8c0,3.8-3.1,6.8-6.8,6.8s-6.8-3.1-6.8-6.8C231.5,171.3,234.5,168.2,238.3,168.2z M224.8,148.1
			c-3,0-5.5-2.4-5.5-5.5c0-3,2.4-5.5,5.5-5.5s5.5,2.4,5.5,5.5C230.3,145.7,227.8,148.1,224.8,148.1z M229.8,200.8
			c0-1,0.8-1.8,1.8-1.8c1,0,1.8,0.8,1.8,1.8s-0.8,1.8-1.8,1.8C230.6,202.6,229.8,201.8,229.8,200.8z M167.6,433.9l112-32.4h128.6
			l112,32.4H167.6z"/>
	</g>
</g>
</svg>
